G75*
%MOIN*%
%OFA0B0*%
%FSLAX24Y24*%
%IPPOS*%
%LPD*%
%AMOC8*
5,1,8,0,0,1.08239X$1,22.5*
%
%ADD10OC8,0.0660*%
%ADD11OC8,0.0600*%
%ADD12OC8,0.0709*%
%ADD13R,0.0260X0.0866*%
%ADD14C,0.0120*%
%ADD15C,0.0270*%
%ADD16C,0.0320*%
%ADD17C,0.0160*%
D10*
X008850Y003850D03*
X009850Y003850D03*
X009850Y004850D03*
X008850Y004850D03*
X008850Y005850D03*
X009850Y005850D03*
D11*
X000850Y000850D03*
X001850Y000850D03*
X002850Y000850D03*
X003850Y000850D03*
X004850Y000850D03*
X005850Y000850D03*
X006850Y000850D03*
X000850Y002850D03*
X000850Y003850D03*
X000850Y005850D03*
X001850Y005850D03*
X002850Y005850D03*
X003850Y005850D03*
X004850Y005850D03*
X005850Y005850D03*
X006850Y005850D03*
D12*
X007972Y001050D03*
X010728Y001050D03*
D13*
X005700Y002169D03*
X005200Y002169D03*
X004700Y002169D03*
X004200Y002169D03*
X003700Y002169D03*
X003200Y002169D03*
X002700Y002169D03*
X002700Y004531D03*
X003200Y004531D03*
X003700Y004531D03*
X004200Y004531D03*
X004700Y004531D03*
X005200Y004531D03*
X005700Y004531D03*
D14*
X005700Y005100D01*
X005950Y005350D01*
X006350Y005350D01*
X006850Y005850D01*
X008850Y005850D01*
X009350Y005350D02*
X009850Y005850D01*
X009350Y005350D02*
X009350Y004550D01*
X009150Y004350D01*
X007250Y004350D01*
X006450Y003550D01*
X005150Y003550D01*
X004850Y003850D01*
X003250Y003850D01*
X002950Y003550D01*
X002950Y003050D01*
X002700Y002800D01*
X003200Y002600D02*
X003650Y003050D01*
X003650Y003350D01*
X003550Y003450D01*
X004050Y003350D02*
X004150Y003450D01*
X004050Y003350D02*
X004050Y002950D01*
X003700Y002600D01*
X003700Y002169D01*
X003696Y001696D01*
X002850Y000850D01*
X002950Y001450D02*
X002450Y001450D01*
X001850Y000850D01*
X002950Y001450D02*
X003196Y001696D01*
X003200Y002169D01*
X003200Y002600D01*
X004200Y002600D02*
X004200Y002169D01*
X004200Y001200D01*
X003850Y000850D01*
X004700Y001000D02*
X004850Y000850D01*
X004700Y001000D02*
X004700Y002169D01*
X005200Y002169D02*
X005200Y001500D01*
X005850Y000850D01*
X005850Y001350D02*
X006350Y001350D01*
X006850Y000850D01*
X007250Y000450D01*
X008550Y000450D01*
X009350Y001250D01*
X009350Y004150D01*
X009850Y004650D01*
X009850Y004850D01*
X008850Y004850D02*
X007250Y004850D01*
X006250Y003850D01*
X005350Y003850D01*
X005200Y004000D01*
X005200Y004531D01*
X005200Y005200D01*
X005850Y005850D01*
X004850Y005850D02*
X004700Y005700D01*
X004700Y004531D01*
X004200Y004531D02*
X004200Y005500D01*
X003850Y005850D01*
X003700Y005000D02*
X002850Y005850D01*
X002850Y005350D02*
X002350Y005350D01*
X001850Y005850D01*
X002850Y005350D02*
X003200Y005000D01*
X003200Y004531D01*
X002700Y004531D02*
X002699Y004851D01*
X002600Y004950D01*
X002390Y004950D01*
X003700Y005000D02*
X003700Y004531D01*
X004550Y002950D02*
X006450Y002950D01*
X007350Y003850D01*
X008850Y003850D01*
X008850Y001928D01*
X007972Y001050D01*
X005850Y001350D02*
X005700Y001500D01*
X005700Y002169D01*
X004550Y002950D02*
X004200Y002600D01*
D15*
X004150Y003450D03*
X003550Y003450D03*
X002350Y003150D03*
X002390Y004950D03*
D16*
X000850Y002850D02*
X000850Y000850D01*
D17*
X002700Y002169D02*
X002700Y002800D01*
X002350Y003150D01*
M02*
