%
M48
M72
T01C0.0130
T02C0.0400
T03C0.0472
%
T01
X2350Y3150
X3550Y3450
X4150Y3450
X2390Y4950
T02
X850Y850
X1850Y850
X2850Y850
X3850Y850
X4850Y850
X5850Y850
X6850Y850
X8850Y3850
X9850Y3850
X9850Y4850
X8850Y4850
X8850Y5850
X9850Y5850
X6850Y5850
X5850Y5850
X4850Y5850
X3850Y5850
X2850Y5850
X1850Y5850
X850Y5850
X850Y3850
X850Y2850
T03
X7972Y1050
X10728Y1050
M30
