G75*
%MOIN*%
%OFA0B0*%
%FSLAX24Y24*%
%IPPOS*%
%LPD*%
%AMOC8*
5,1,8,0,0,1.08239X$1,22.5*
%
%ADD10R,0.0394X0.0433*%
%ADD11R,0.0433X0.0394*%
%ADD12OC8,0.0660*%
%ADD13R,0.0709X0.0630*%
%ADD14R,0.0787X0.0945*%
%ADD15OC8,0.0600*%
%ADD16OC8,0.0709*%
%ADD17C,0.0100*%
%ADD18C,0.0270*%
%ADD19C,0.0320*%
%ADD20C,0.0160*%
%ADD21C,0.0120*%
D10*
X001650Y001815D03*
X001650Y002485D03*
D11*
X002350Y002485D03*
X002350Y001815D03*
X002715Y004450D03*
X003385Y004450D03*
X004115Y004450D03*
X004785Y004450D03*
D12*
X008850Y004850D03*
X009850Y004850D03*
X009850Y003850D03*
X008850Y003850D03*
X008850Y005850D03*
X009850Y005850D03*
D13*
X001850Y004401D03*
X001850Y003299D03*
D14*
X003063Y003450D03*
X004637Y003450D03*
D15*
X000850Y003850D03*
X000850Y002850D03*
X000850Y000850D03*
X001850Y000850D03*
X002850Y000850D03*
X003850Y000850D03*
X004850Y000850D03*
X005850Y000850D03*
X006850Y000850D03*
X006850Y005850D03*
X005850Y005850D03*
X004850Y005850D03*
X003850Y005850D03*
X002850Y005850D03*
X001850Y005850D03*
X000850Y005850D03*
D16*
X007972Y001050D03*
X010728Y001050D03*
D17*
X010935Y000347D02*
X000665Y000347D01*
X000664Y000400D02*
X001036Y000400D01*
X001300Y000664D01*
X001300Y001036D01*
X001036Y001300D01*
X000664Y001300D01*
X000400Y001036D01*
X000400Y000664D01*
X000664Y000400D01*
X000618Y000446D02*
X000567Y000446D01*
X000520Y000544D02*
X000468Y000544D01*
X000421Y000643D02*
X000370Y000643D01*
X000300Y000712D02*
X000300Y005988D01*
X000712Y006400D01*
X010888Y006400D01*
X011300Y005988D01*
X011300Y000712D01*
X010888Y000300D01*
X000712Y000300D01*
X000300Y000712D01*
X000300Y000741D02*
X000400Y000741D01*
X000400Y000840D02*
X000300Y000840D01*
X000300Y000938D02*
X000400Y000938D01*
X000400Y001037D02*
X000300Y001037D01*
X000300Y001135D02*
X000499Y001135D01*
X000597Y001234D02*
X000300Y001234D01*
X000300Y001332D02*
X003071Y001332D01*
X003036Y001300D02*
X002664Y001300D01*
X002400Y001036D01*
X002400Y000664D01*
X002664Y000400D01*
X003036Y000400D01*
X003300Y000664D01*
X003300Y001036D01*
X003036Y001300D01*
X003103Y001234D02*
X003170Y001234D01*
X003201Y001135D02*
X003268Y001135D01*
X003300Y001037D02*
X003367Y001037D01*
X003400Y001003D02*
X003400Y000664D01*
X003664Y000400D01*
X004036Y000400D01*
X004300Y000664D01*
X004300Y001036D01*
X004036Y001300D01*
X003697Y001300D01*
X002972Y002025D01*
X002717Y002025D01*
X002717Y002074D01*
X002641Y002150D01*
X002717Y002226D01*
X002717Y002744D01*
X002633Y002828D01*
X003518Y002828D01*
X003606Y002915D01*
X003606Y003165D01*
X003607Y003165D01*
X003711Y003208D01*
X003792Y003289D01*
X003835Y003393D01*
X003835Y003507D01*
X003792Y003611D01*
X003711Y003692D01*
X003607Y003735D01*
X003606Y003735D01*
X003606Y003985D01*
X003518Y004072D01*
X002925Y004072D01*
X002925Y004103D01*
X002994Y004103D01*
X003050Y004159D01*
X003076Y004133D01*
X003110Y004113D01*
X003148Y004103D01*
X003336Y004103D01*
X003336Y004402D01*
X003433Y004402D01*
X003433Y004498D01*
X003751Y004498D01*
X004067Y004498D01*
X004067Y004402D01*
X003433Y004402D01*
X003433Y004103D01*
X003621Y004103D01*
X003659Y004113D01*
X003693Y004133D01*
X003721Y004161D01*
X003741Y004195D01*
X003750Y004229D01*
X003759Y004195D01*
X003779Y004161D01*
X003807Y004133D01*
X003841Y004113D01*
X003879Y004103D01*
X004067Y004103D01*
X004067Y004402D01*
X004164Y004402D01*
X004164Y004103D01*
X004352Y004103D01*
X004390Y004113D01*
X004424Y004133D01*
X004450Y004159D01*
X004506Y004103D01*
X004575Y004103D01*
X004575Y004072D01*
X004182Y004072D01*
X004094Y003985D01*
X004094Y003735D01*
X004093Y003735D01*
X003989Y003692D01*
X003908Y003611D01*
X003865Y003507D01*
X003865Y003393D01*
X003908Y003289D01*
X003989Y003208D01*
X004093Y003165D01*
X004094Y003165D01*
X004094Y002915D01*
X004182Y002828D01*
X005093Y002828D01*
X005181Y002915D01*
X005181Y003985D01*
X005093Y004072D01*
X004995Y004072D01*
X004995Y004103D01*
X005063Y004103D01*
X005151Y004191D01*
X005151Y004709D01*
X005063Y004797D01*
X004506Y004797D01*
X004450Y004741D01*
X004424Y004767D01*
X004390Y004787D01*
X004352Y004797D01*
X004164Y004797D01*
X004164Y004498D01*
X004067Y004498D01*
X004067Y004797D01*
X003879Y004797D01*
X003841Y004787D01*
X003807Y004767D01*
X003779Y004739D01*
X003759Y004705D01*
X003750Y004671D01*
X003741Y004705D01*
X003721Y004739D01*
X003693Y004767D01*
X003659Y004787D01*
X003621Y004797D01*
X003433Y004797D01*
X003433Y004498D01*
X003336Y004498D01*
X003336Y004797D01*
X003148Y004797D01*
X003110Y004787D01*
X003076Y004767D01*
X003050Y004741D01*
X002994Y004797D01*
X002437Y004797D01*
X002354Y004714D01*
X002354Y004736D01*
X002344Y004774D01*
X002324Y004808D01*
X002296Y004836D01*
X002262Y004856D01*
X002224Y004866D01*
X001900Y004866D01*
X001900Y004451D01*
X001800Y004451D01*
X001800Y004351D01*
X001900Y004351D01*
X001900Y003936D01*
X002224Y003936D01*
X002262Y003946D01*
X002296Y003966D01*
X002324Y003994D01*
X002344Y004028D01*
X002354Y004066D01*
X002354Y004186D01*
X002437Y004103D01*
X002505Y004103D01*
X002505Y003710D01*
X002519Y003697D01*
X002519Y003384D01*
X002511Y003392D01*
X002407Y003435D01*
X002354Y003435D01*
X002354Y003676D01*
X002266Y003764D01*
X001434Y003764D01*
X001346Y003676D01*
X001346Y003274D01*
X001340Y003260D01*
X001340Y003249D01*
X001336Y003238D01*
X001340Y003188D01*
X001340Y002800D01*
X001339Y002799D01*
X001300Y002838D01*
X001300Y003036D01*
X001036Y003300D01*
X000664Y003300D01*
X000400Y003036D01*
X000400Y002664D01*
X000664Y002400D01*
X000862Y002400D01*
X001040Y002222D01*
X001154Y002175D01*
X001334Y002175D01*
X001359Y002150D01*
X001333Y002124D01*
X001313Y002090D01*
X001303Y002052D01*
X001303Y001864D01*
X001602Y001864D01*
X001602Y001767D01*
X001698Y001767D01*
X001698Y001449D01*
X001867Y001449D01*
X001905Y001459D01*
X001939Y001479D01*
X001967Y001507D01*
X001987Y001541D01*
X001989Y001551D01*
X002071Y001469D01*
X002629Y001469D01*
X002717Y001556D01*
X002717Y001605D01*
X002798Y001605D01*
X003400Y001003D01*
X003400Y000938D02*
X003300Y000938D01*
X003300Y000840D02*
X003400Y000840D01*
X003400Y000741D02*
X003300Y000741D01*
X003279Y000643D02*
X003421Y000643D01*
X003520Y000544D02*
X003180Y000544D01*
X003082Y000446D02*
X003618Y000446D01*
X004082Y000446D02*
X004618Y000446D01*
X004664Y000400D02*
X005036Y000400D01*
X005300Y000664D01*
X005300Y001036D01*
X005036Y001300D01*
X004664Y001300D01*
X004400Y001036D01*
X004400Y000664D01*
X004664Y000400D01*
X004520Y000544D02*
X004180Y000544D01*
X004279Y000643D02*
X004421Y000643D01*
X004400Y000741D02*
X004300Y000741D01*
X004300Y000840D02*
X004400Y000840D01*
X004400Y000938D02*
X004300Y000938D01*
X004300Y001037D02*
X004400Y001037D01*
X004499Y001135D02*
X004201Y001135D01*
X004103Y001234D02*
X004597Y001234D01*
X005103Y001234D02*
X005597Y001234D01*
X005664Y001300D02*
X005400Y001036D01*
X005400Y000664D01*
X005664Y000400D01*
X006036Y000400D01*
X006300Y000664D01*
X006300Y001036D01*
X006036Y001300D01*
X005664Y001300D01*
X005499Y001135D02*
X005201Y001135D01*
X005300Y001037D02*
X005400Y001037D01*
X005400Y000938D02*
X005300Y000938D01*
X005300Y000840D02*
X005400Y000840D01*
X005400Y000741D02*
X005300Y000741D01*
X005279Y000643D02*
X005421Y000643D01*
X005520Y000544D02*
X005180Y000544D01*
X005082Y000446D02*
X005618Y000446D01*
X006082Y000446D02*
X006618Y000446D01*
X006664Y000400D02*
X007036Y000400D01*
X007300Y000664D01*
X007300Y001036D01*
X007036Y001300D01*
X006664Y001300D01*
X006400Y001036D01*
X006400Y000664D01*
X006664Y000400D01*
X006520Y000544D02*
X006180Y000544D01*
X006279Y000643D02*
X006421Y000643D01*
X006400Y000741D02*
X006300Y000741D01*
X006300Y000840D02*
X006400Y000840D01*
X006400Y000938D02*
X006300Y000938D01*
X006300Y001037D02*
X006400Y001037D01*
X006499Y001135D02*
X006201Y001135D01*
X006103Y001234D02*
X006597Y001234D01*
X007103Y001234D02*
X007468Y001234D01*
X007468Y001259D02*
X007468Y000841D01*
X007763Y000546D01*
X008181Y000546D01*
X008476Y000841D01*
X008476Y001259D01*
X008181Y001554D01*
X007763Y001554D01*
X007468Y001259D01*
X007541Y001332D02*
X003665Y001332D01*
X003566Y001431D02*
X007639Y001431D01*
X007738Y001529D02*
X003468Y001529D01*
X003369Y001628D02*
X011300Y001628D01*
X011300Y001726D02*
X003271Y001726D01*
X003172Y001825D02*
X011300Y001825D01*
X011300Y001923D02*
X003074Y001923D01*
X002975Y002022D02*
X011300Y002022D01*
X011300Y002120D02*
X002671Y002120D01*
X002709Y002219D02*
X011300Y002219D01*
X011300Y002317D02*
X002717Y002317D01*
X002717Y002416D02*
X011300Y002416D01*
X011300Y002514D02*
X002717Y002514D01*
X002717Y002613D02*
X011300Y002613D01*
X011300Y002711D02*
X002717Y002711D01*
X002651Y002810D02*
X011300Y002810D01*
X011300Y002908D02*
X005174Y002908D01*
X005181Y003007D02*
X011300Y003007D01*
X011300Y003105D02*
X005181Y003105D01*
X005181Y003204D02*
X011300Y003204D01*
X011300Y003302D02*
X005181Y003302D01*
X005181Y003401D02*
X008621Y003401D01*
X008651Y003370D02*
X009049Y003370D01*
X009330Y003651D01*
X009330Y004049D01*
X009049Y004330D01*
X008651Y004330D01*
X008370Y004049D01*
X008370Y003651D01*
X008651Y003370D01*
X008522Y003499D02*
X005181Y003499D01*
X005181Y003598D02*
X008424Y003598D01*
X008370Y003696D02*
X005181Y003696D01*
X005181Y003795D02*
X008370Y003795D01*
X008370Y003893D02*
X005181Y003893D01*
X005174Y003992D02*
X008370Y003992D01*
X008411Y004090D02*
X004995Y004090D01*
X005149Y004189D02*
X008510Y004189D01*
X008608Y004287D02*
X005151Y004287D01*
X005151Y004386D02*
X008636Y004386D01*
X008651Y004370D02*
X009049Y004370D01*
X009330Y004651D01*
X009330Y005049D01*
X009049Y005330D01*
X008651Y005330D01*
X008370Y005049D01*
X008370Y004651D01*
X008651Y004370D01*
X008537Y004484D02*
X005151Y004484D01*
X005151Y004583D02*
X008439Y004583D01*
X008370Y004681D02*
X005151Y004681D01*
X005081Y004780D02*
X008370Y004780D01*
X008370Y004878D02*
X000300Y004878D01*
X000300Y004780D02*
X001359Y004780D01*
X001356Y004774D02*
X001346Y004736D01*
X001346Y004451D01*
X001800Y004451D01*
X001800Y004866D01*
X001476Y004866D01*
X001438Y004856D01*
X001404Y004836D01*
X001376Y004808D01*
X001356Y004774D01*
X001346Y004681D02*
X000300Y004681D01*
X000300Y004583D02*
X001346Y004583D01*
X001346Y004484D02*
X000300Y004484D01*
X000300Y004386D02*
X001800Y004386D01*
X001800Y004351D02*
X001346Y004351D01*
X001346Y004066D01*
X001356Y004028D01*
X001376Y003994D01*
X001404Y003966D01*
X001438Y003946D01*
X001476Y003936D01*
X001800Y003936D01*
X001800Y004351D01*
X001800Y004287D02*
X001900Y004287D01*
X001900Y004189D02*
X001800Y004189D01*
X001800Y004090D02*
X001900Y004090D01*
X001900Y003992D02*
X001800Y003992D01*
X001378Y003992D02*
X001300Y003992D01*
X001300Y004036D02*
X001300Y003900D01*
X000900Y003900D01*
X000800Y003900D01*
X000800Y004300D01*
X000664Y004300D01*
X000400Y004036D01*
X000400Y003900D01*
X000800Y003900D01*
X000800Y003800D01*
X000400Y003800D01*
X000400Y003664D01*
X000664Y003400D01*
X000800Y003400D01*
X000800Y003800D01*
X000900Y003800D01*
X000900Y003900D01*
X000900Y004300D01*
X001036Y004300D01*
X001300Y004036D01*
X001346Y004090D02*
X001246Y004090D01*
X001148Y004189D02*
X001346Y004189D01*
X001346Y004287D02*
X001049Y004287D01*
X000900Y004287D02*
X000800Y004287D01*
X000800Y004189D02*
X000900Y004189D01*
X000900Y004090D02*
X000800Y004090D01*
X000800Y003992D02*
X000900Y003992D01*
X000900Y003893D02*
X002505Y003893D01*
X002505Y003795D02*
X001300Y003795D01*
X001300Y003800D02*
X000900Y003800D01*
X000900Y003400D01*
X001036Y003400D01*
X001300Y003664D01*
X001300Y003800D01*
X001300Y003696D02*
X001366Y003696D01*
X001346Y003598D02*
X001234Y003598D01*
X001135Y003499D02*
X001346Y003499D01*
X001346Y003401D02*
X001037Y003401D01*
X000900Y003401D02*
X000800Y003401D01*
X000663Y003401D02*
X000300Y003401D01*
X000300Y003302D02*
X001346Y003302D01*
X001339Y003204D02*
X001133Y003204D01*
X001231Y003105D02*
X001340Y003105D01*
X001340Y003007D02*
X001300Y003007D01*
X001300Y002908D02*
X001340Y002908D01*
X001329Y002810D02*
X001340Y002810D01*
X000945Y002317D02*
X000300Y002317D01*
X000300Y002416D02*
X000648Y002416D01*
X000550Y002514D02*
X000300Y002514D01*
X000300Y002613D02*
X000451Y002613D01*
X000400Y002711D02*
X000300Y002711D01*
X000300Y002810D02*
X000400Y002810D01*
X000400Y002908D02*
X000300Y002908D01*
X000300Y003007D02*
X000400Y003007D01*
X000469Y003105D02*
X000300Y003105D01*
X000300Y003204D02*
X000567Y003204D01*
X000565Y003499D02*
X000300Y003499D01*
X000300Y003598D02*
X000466Y003598D01*
X000400Y003696D02*
X000300Y003696D01*
X000300Y003795D02*
X000400Y003795D01*
X000300Y003893D02*
X000800Y003893D01*
X000800Y003795D02*
X000900Y003795D01*
X000900Y003696D02*
X000800Y003696D01*
X000800Y003598D02*
X000900Y003598D01*
X000900Y003499D02*
X000800Y003499D01*
X000400Y003992D02*
X000300Y003992D01*
X000300Y004090D02*
X000454Y004090D01*
X000552Y004189D02*
X000300Y004189D01*
X000300Y004287D02*
X000651Y004287D01*
X000300Y004977D02*
X008370Y004977D01*
X008396Y005075D02*
X000300Y005075D01*
X000300Y005174D02*
X008495Y005174D01*
X008593Y005272D02*
X000300Y005272D01*
X000300Y005371D02*
X008651Y005371D01*
X008651Y005370D02*
X009049Y005370D01*
X009330Y005651D01*
X009330Y006049D01*
X009049Y006330D01*
X008651Y006330D01*
X008370Y006049D01*
X008370Y005651D01*
X008651Y005370D01*
X008552Y005469D02*
X007105Y005469D01*
X007036Y005400D02*
X007300Y005664D01*
X007300Y006036D01*
X007036Y006300D01*
X006664Y006300D01*
X006400Y006036D01*
X006400Y005664D01*
X006664Y005400D01*
X007036Y005400D01*
X007204Y005568D02*
X008454Y005568D01*
X008370Y005666D02*
X007300Y005666D01*
X007300Y005765D02*
X008370Y005765D01*
X008370Y005863D02*
X007300Y005863D01*
X007300Y005962D02*
X008370Y005962D01*
X008381Y006060D02*
X007276Y006060D01*
X007178Y006159D02*
X008480Y006159D01*
X008578Y006257D02*
X007079Y006257D01*
X006621Y006257D02*
X006079Y006257D01*
X006036Y006300D02*
X005664Y006300D01*
X005400Y006036D01*
X005400Y005664D01*
X005664Y005400D01*
X006036Y005400D01*
X006300Y005664D01*
X006300Y006036D01*
X006036Y006300D01*
X006178Y006159D02*
X006522Y006159D01*
X006424Y006060D02*
X006276Y006060D01*
X006300Y005962D02*
X006400Y005962D01*
X006400Y005863D02*
X006300Y005863D01*
X006300Y005765D02*
X006400Y005765D01*
X006400Y005666D02*
X006300Y005666D01*
X006204Y005568D02*
X006496Y005568D01*
X006595Y005469D02*
X006105Y005469D01*
X005595Y005469D02*
X005105Y005469D01*
X005036Y005400D02*
X005300Y005664D01*
X005300Y006036D01*
X005036Y006300D01*
X004664Y006300D01*
X004400Y006036D01*
X004400Y005664D01*
X004664Y005400D01*
X005036Y005400D01*
X005204Y005568D02*
X005496Y005568D01*
X005400Y005666D02*
X005300Y005666D01*
X005300Y005765D02*
X005400Y005765D01*
X005400Y005863D02*
X005300Y005863D01*
X005300Y005962D02*
X005400Y005962D01*
X005424Y006060D02*
X005276Y006060D01*
X005178Y006159D02*
X005522Y006159D01*
X005621Y006257D02*
X005079Y006257D01*
X004621Y006257D02*
X004079Y006257D01*
X004036Y006300D02*
X003664Y006300D01*
X003400Y006036D01*
X003400Y005664D01*
X003664Y005400D01*
X004036Y005400D01*
X004300Y005664D01*
X004300Y006036D01*
X004036Y006300D01*
X004178Y006159D02*
X004522Y006159D01*
X004424Y006060D02*
X004276Y006060D01*
X004300Y005962D02*
X004400Y005962D01*
X004400Y005863D02*
X004300Y005863D01*
X004300Y005765D02*
X004400Y005765D01*
X004400Y005666D02*
X004300Y005666D01*
X004204Y005568D02*
X004496Y005568D01*
X004595Y005469D02*
X004105Y005469D01*
X003595Y005469D02*
X003105Y005469D01*
X003036Y005400D02*
X003300Y005664D01*
X003300Y006036D01*
X003036Y006300D01*
X002664Y006300D01*
X002400Y006036D01*
X002400Y005664D01*
X002664Y005400D01*
X003036Y005400D01*
X003204Y005568D02*
X003496Y005568D01*
X003400Y005666D02*
X003300Y005666D01*
X003300Y005765D02*
X003400Y005765D01*
X003400Y005863D02*
X003300Y005863D01*
X003300Y005962D02*
X003400Y005962D01*
X003424Y006060D02*
X003276Y006060D01*
X003178Y006159D02*
X003522Y006159D01*
X003621Y006257D02*
X003079Y006257D01*
X002621Y006257D02*
X002079Y006257D01*
X002036Y006300D02*
X001664Y006300D01*
X001400Y006036D01*
X001400Y005664D01*
X001664Y005400D01*
X002036Y005400D01*
X002300Y005664D01*
X002300Y006036D01*
X002036Y006300D01*
X002178Y006159D02*
X002522Y006159D01*
X002424Y006060D02*
X002276Y006060D01*
X002300Y005962D02*
X002400Y005962D01*
X002400Y005863D02*
X002300Y005863D01*
X002300Y005765D02*
X002400Y005765D01*
X002400Y005666D02*
X002300Y005666D01*
X002204Y005568D02*
X002496Y005568D01*
X002595Y005469D02*
X002105Y005469D01*
X001595Y005469D02*
X001105Y005469D01*
X001036Y005400D02*
X001300Y005664D01*
X001300Y005800D01*
X000900Y005800D01*
X000900Y005900D01*
X001300Y005900D01*
X001300Y006036D01*
X001036Y006300D01*
X000900Y006300D01*
X000900Y005900D01*
X000800Y005900D01*
X000800Y006300D01*
X000664Y006300D01*
X000400Y006036D01*
X000400Y005900D01*
X000800Y005900D01*
X000800Y005800D01*
X000900Y005800D01*
X000900Y005400D01*
X001036Y005400D01*
X000900Y005469D02*
X000800Y005469D01*
X000800Y005400D02*
X000800Y005800D01*
X000400Y005800D01*
X000400Y005664D01*
X000664Y005400D01*
X000800Y005400D01*
X000595Y005469D02*
X000300Y005469D01*
X000300Y005568D02*
X000496Y005568D01*
X000400Y005666D02*
X000300Y005666D01*
X000300Y005765D02*
X000400Y005765D01*
X000300Y005863D02*
X000800Y005863D01*
X000800Y005962D02*
X000900Y005962D01*
X000900Y006060D02*
X000800Y006060D01*
X000800Y006159D02*
X000900Y006159D01*
X000900Y006257D02*
X000800Y006257D01*
X000668Y006356D02*
X010932Y006356D01*
X011031Y006257D02*
X010122Y006257D01*
X010049Y006330D02*
X009651Y006330D01*
X009370Y006049D01*
X009370Y005651D01*
X009651Y005370D01*
X010049Y005370D01*
X010330Y005651D01*
X010330Y006049D01*
X010049Y006330D01*
X010220Y006159D02*
X011129Y006159D01*
X011228Y006060D02*
X010319Y006060D01*
X010330Y005962D02*
X011300Y005962D01*
X011300Y005863D02*
X010330Y005863D01*
X010330Y005765D02*
X011300Y005765D01*
X011300Y005666D02*
X010330Y005666D01*
X010246Y005568D02*
X011300Y005568D01*
X011300Y005469D02*
X010148Y005469D01*
X010049Y005371D02*
X011300Y005371D01*
X011300Y005272D02*
X010107Y005272D01*
X010049Y005330D02*
X009651Y005330D01*
X009370Y005049D01*
X009370Y004651D01*
X009651Y004370D01*
X010049Y004370D01*
X010330Y004651D01*
X010330Y005049D01*
X010049Y005330D01*
X010205Y005174D02*
X011300Y005174D01*
X011300Y005075D02*
X010304Y005075D01*
X010330Y004977D02*
X011300Y004977D01*
X011300Y004878D02*
X010330Y004878D01*
X010330Y004780D02*
X011300Y004780D01*
X011300Y004681D02*
X010330Y004681D01*
X010261Y004583D02*
X011300Y004583D01*
X011300Y004484D02*
X010163Y004484D01*
X010064Y004386D02*
X011300Y004386D01*
X011300Y004287D02*
X010092Y004287D01*
X010049Y004330D02*
X009900Y004330D01*
X009900Y003900D01*
X009800Y003900D01*
X009800Y004330D01*
X009651Y004330D01*
X009370Y004049D01*
X009370Y003900D01*
X009800Y003900D01*
X009800Y003800D01*
X009370Y003800D01*
X009370Y003651D01*
X009651Y003370D01*
X009800Y003370D01*
X009800Y003800D01*
X009900Y003800D01*
X009900Y003900D01*
X010330Y003900D01*
X010330Y004049D01*
X010049Y004330D01*
X009900Y004287D02*
X009800Y004287D01*
X009800Y004189D02*
X009900Y004189D01*
X009900Y004090D02*
X009800Y004090D01*
X009800Y003992D02*
X009900Y003992D01*
X009900Y003893D02*
X011300Y003893D01*
X011300Y003795D02*
X010330Y003795D01*
X010330Y003800D02*
X009900Y003800D01*
X009900Y003370D01*
X010049Y003370D01*
X010330Y003651D01*
X010330Y003800D01*
X010330Y003696D02*
X011300Y003696D01*
X011300Y003598D02*
X010276Y003598D01*
X010178Y003499D02*
X011300Y003499D01*
X011300Y003401D02*
X010079Y003401D01*
X009900Y003401D02*
X009800Y003401D01*
X009800Y003499D02*
X009900Y003499D01*
X009900Y003598D02*
X009800Y003598D01*
X009800Y003696D02*
X009900Y003696D01*
X009900Y003795D02*
X009800Y003795D01*
X009800Y003893D02*
X009330Y003893D01*
X009330Y003795D02*
X009370Y003795D01*
X009370Y003696D02*
X009330Y003696D01*
X009276Y003598D02*
X009424Y003598D01*
X009522Y003499D02*
X009178Y003499D01*
X009079Y003401D02*
X009621Y003401D01*
X009370Y003992D02*
X009330Y003992D01*
X009289Y004090D02*
X009411Y004090D01*
X009510Y004189D02*
X009190Y004189D01*
X009092Y004287D02*
X009608Y004287D01*
X009636Y004386D02*
X009064Y004386D01*
X009163Y004484D02*
X009537Y004484D01*
X009439Y004583D02*
X009261Y004583D01*
X009330Y004681D02*
X009370Y004681D01*
X009370Y004780D02*
X009330Y004780D01*
X009330Y004878D02*
X009370Y004878D01*
X009370Y004977D02*
X009330Y004977D01*
X009304Y005075D02*
X009396Y005075D01*
X009495Y005174D02*
X009205Y005174D01*
X009107Y005272D02*
X009593Y005272D01*
X009651Y005371D02*
X009049Y005371D01*
X009148Y005469D02*
X009552Y005469D01*
X009454Y005568D02*
X009246Y005568D01*
X009330Y005666D02*
X009370Y005666D01*
X009370Y005765D02*
X009330Y005765D01*
X009330Y005863D02*
X009370Y005863D01*
X009370Y005962D02*
X009330Y005962D01*
X009319Y006060D02*
X009381Y006060D01*
X009480Y006159D02*
X009220Y006159D01*
X009122Y006257D02*
X009578Y006257D01*
X010190Y004189D02*
X011300Y004189D01*
X011300Y004090D02*
X010289Y004090D01*
X010330Y003992D02*
X011300Y003992D01*
X010937Y001554D02*
X010778Y001554D01*
X010778Y001100D01*
X011232Y001100D01*
X011232Y001259D01*
X010937Y001554D01*
X010962Y001529D02*
X011300Y001529D01*
X011300Y001431D02*
X011061Y001431D01*
X011159Y001332D02*
X011300Y001332D01*
X011300Y001234D02*
X011232Y001234D01*
X011232Y001135D02*
X011300Y001135D01*
X011300Y001037D02*
X010778Y001037D01*
X010778Y001000D02*
X010778Y001100D01*
X010678Y001100D01*
X010678Y001554D01*
X010519Y001554D01*
X010224Y001259D01*
X010224Y001100D01*
X010678Y001100D01*
X010678Y001000D01*
X010778Y001000D01*
X011232Y001000D01*
X011232Y000841D01*
X010937Y000546D01*
X010778Y000546D01*
X010778Y001000D01*
X010778Y000938D02*
X010678Y000938D01*
X010678Y001000D02*
X010678Y000546D01*
X010519Y000546D01*
X010224Y000841D01*
X010224Y001000D01*
X010678Y001000D01*
X010678Y001037D02*
X008476Y001037D01*
X008476Y001135D02*
X010224Y001135D01*
X010224Y001234D02*
X008476Y001234D01*
X008403Y001332D02*
X010297Y001332D01*
X010395Y001431D02*
X008305Y001431D01*
X008206Y001529D02*
X010494Y001529D01*
X010678Y001529D02*
X010778Y001529D01*
X010778Y001431D02*
X010678Y001431D01*
X010678Y001332D02*
X010778Y001332D01*
X010778Y001234D02*
X010678Y001234D01*
X010678Y001135D02*
X010778Y001135D01*
X010778Y000840D02*
X010678Y000840D01*
X010678Y000741D02*
X010778Y000741D01*
X010778Y000643D02*
X010678Y000643D01*
X010422Y000643D02*
X008278Y000643D01*
X008376Y000741D02*
X010324Y000741D01*
X010225Y000840D02*
X008475Y000840D01*
X008476Y000938D02*
X010224Y000938D01*
X011034Y000643D02*
X011230Y000643D01*
X011132Y000544D02*
X007180Y000544D01*
X007082Y000446D02*
X011033Y000446D01*
X011132Y000741D02*
X011300Y000741D01*
X011300Y000840D02*
X011231Y000840D01*
X011232Y000938D02*
X011300Y000938D01*
X007666Y000643D02*
X007279Y000643D01*
X007300Y000741D02*
X007568Y000741D01*
X007469Y000840D02*
X007300Y000840D01*
X007300Y000938D02*
X007468Y000938D01*
X007468Y001037D02*
X007300Y001037D01*
X007201Y001135D02*
X007468Y001135D01*
X004101Y002908D02*
X003599Y002908D01*
X003606Y003007D02*
X004094Y003007D01*
X004094Y003105D02*
X003606Y003105D01*
X003700Y003204D02*
X004000Y003204D01*
X003903Y003302D02*
X003797Y003302D01*
X003835Y003401D02*
X003865Y003401D01*
X003865Y003499D02*
X003835Y003499D01*
X003797Y003598D02*
X003903Y003598D01*
X003999Y003696D02*
X003701Y003696D01*
X003606Y003795D02*
X004094Y003795D01*
X004094Y003893D02*
X003606Y003893D01*
X003599Y003992D02*
X004101Y003992D01*
X004067Y004189D02*
X004164Y004189D01*
X004164Y004287D02*
X004067Y004287D01*
X004067Y004386D02*
X004164Y004386D01*
X004067Y004484D02*
X003433Y004484D01*
X003433Y004386D02*
X003336Y004386D01*
X003336Y004287D02*
X003433Y004287D01*
X003433Y004189D02*
X003336Y004189D01*
X002925Y004090D02*
X004575Y004090D01*
X004164Y004583D02*
X004067Y004583D01*
X004067Y004681D02*
X004164Y004681D01*
X004164Y004780D02*
X004067Y004780D01*
X003829Y004780D02*
X003671Y004780D01*
X003747Y004681D02*
X003753Y004681D01*
X003433Y004681D02*
X003336Y004681D01*
X003336Y004780D02*
X003433Y004780D01*
X003433Y004583D02*
X003336Y004583D01*
X003098Y004780D02*
X003011Y004780D01*
X002419Y004780D02*
X002341Y004780D01*
X001900Y004780D02*
X001800Y004780D01*
X001800Y004681D02*
X001900Y004681D01*
X001900Y004583D02*
X001800Y004583D01*
X001800Y004484D02*
X001900Y004484D01*
X002354Y004090D02*
X002505Y004090D01*
X002505Y003992D02*
X002322Y003992D01*
X002334Y003696D02*
X002519Y003696D01*
X002519Y003598D02*
X002354Y003598D01*
X002354Y003499D02*
X002519Y003499D01*
X002519Y003401D02*
X002490Y003401D01*
X003737Y004189D02*
X003763Y004189D01*
X004402Y004780D02*
X004489Y004780D01*
X001621Y006257D02*
X001079Y006257D01*
X001178Y006159D02*
X001522Y006159D01*
X001424Y006060D02*
X001276Y006060D01*
X001300Y005962D02*
X001400Y005962D01*
X001400Y005863D02*
X000900Y005863D01*
X000900Y005765D02*
X000800Y005765D01*
X000800Y005666D02*
X000900Y005666D01*
X000900Y005568D02*
X000800Y005568D01*
X001204Y005568D02*
X001496Y005568D01*
X001400Y005666D02*
X001300Y005666D01*
X001300Y005765D02*
X001400Y005765D01*
X000621Y006257D02*
X000569Y006257D01*
X000522Y006159D02*
X000471Y006159D01*
X000424Y006060D02*
X000372Y006060D01*
X000400Y005962D02*
X000300Y005962D01*
X000300Y002219D02*
X001048Y002219D01*
X001331Y002120D02*
X000300Y002120D01*
X000300Y002022D02*
X001303Y002022D01*
X001303Y001923D02*
X000300Y001923D01*
X000300Y001825D02*
X001602Y001825D01*
X001602Y001767D02*
X001303Y001767D01*
X001303Y001579D01*
X001313Y001541D01*
X001333Y001507D01*
X001361Y001479D01*
X001395Y001459D01*
X001433Y001449D01*
X001602Y001449D01*
X001602Y001767D01*
X001602Y001726D02*
X001698Y001726D01*
X001698Y001628D02*
X001602Y001628D01*
X001602Y001529D02*
X001698Y001529D01*
X001664Y001300D02*
X001400Y001036D01*
X001400Y000664D01*
X001664Y000400D01*
X002036Y000400D01*
X002300Y000664D01*
X002300Y001036D01*
X002036Y001300D01*
X001664Y001300D01*
X001597Y001234D02*
X001103Y001234D01*
X001201Y001135D02*
X001499Y001135D01*
X001400Y001037D02*
X001300Y001037D01*
X001300Y000938D02*
X001400Y000938D01*
X001400Y000840D02*
X001300Y000840D01*
X001300Y000741D02*
X001400Y000741D01*
X001421Y000643D02*
X001279Y000643D01*
X001180Y000544D02*
X001520Y000544D01*
X001618Y000446D02*
X001082Y000446D01*
X002082Y000446D02*
X002618Y000446D01*
X002520Y000544D02*
X002180Y000544D01*
X002279Y000643D02*
X002421Y000643D01*
X002400Y000741D02*
X002300Y000741D01*
X002300Y000840D02*
X002400Y000840D01*
X002400Y000938D02*
X002300Y000938D01*
X002300Y001037D02*
X002400Y001037D01*
X002499Y001135D02*
X002201Y001135D01*
X002103Y001234D02*
X002597Y001234D01*
X002973Y001431D02*
X000300Y001431D01*
X000300Y001529D02*
X001320Y001529D01*
X001303Y001628D02*
X000300Y001628D01*
X000300Y001726D02*
X001303Y001726D01*
X001980Y001529D02*
X002011Y001529D01*
X002689Y001529D02*
X002874Y001529D01*
D18*
X002350Y003150D03*
X003550Y003450D03*
X004150Y003450D03*
X002390Y004950D03*
D19*
X001850Y003299D02*
X001650Y003199D01*
X001650Y002485D01*
X001215Y002485D01*
X000850Y002850D01*
X001650Y002485D02*
X002350Y002485D01*
D20*
X002350Y003150D02*
X001999Y003150D01*
X001850Y003299D01*
D21*
X002715Y003797D02*
X003063Y003450D01*
X003550Y003450D01*
X004150Y003450D02*
X004637Y003450D01*
X004785Y003597D01*
X004785Y004450D01*
X002715Y004450D02*
X002715Y003797D01*
X002885Y001815D02*
X002350Y001815D01*
X002885Y001815D02*
X003850Y000850D01*
M02*
