G75*
%MOIN*%
%OFA0B0*%
%FSLAX24Y24*%
%IPPOS*%
%LPD*%
%AMOC8*
5,1,8,0,0,1.08239X$1,22.5*
%
%ADD10C,0.0030*%
%ADD11C,0.0040*%
%ADD12C,0.0050*%
%ADD13C,0.0060*%
D10*
X000488Y001765D02*
X000612Y001888D01*
X000612Y002135D01*
X000733Y002074D02*
X000733Y001827D01*
X000795Y001765D01*
X000918Y001765D01*
X000980Y001827D01*
X001102Y001827D02*
X001163Y001765D01*
X001287Y001765D01*
X001349Y001827D01*
X001102Y001827D02*
X001102Y002074D01*
X001163Y002135D01*
X001287Y002135D01*
X001349Y002074D01*
X000980Y002074D02*
X000918Y002135D01*
X000795Y002135D01*
X000733Y002074D01*
X000365Y002135D02*
X000365Y001888D01*
X000488Y001765D01*
X000427Y004565D02*
X000550Y004565D01*
X000612Y004627D01*
X000612Y004750D01*
X000488Y004750D01*
X000365Y004627D02*
X000365Y004874D01*
X000427Y004935D01*
X000550Y004935D01*
X000612Y004874D01*
X000733Y004935D02*
X000980Y004565D01*
X000980Y004935D01*
X001102Y004935D02*
X001287Y004935D01*
X001349Y004874D01*
X001349Y004627D01*
X001287Y004565D01*
X001102Y004565D01*
X001102Y004935D01*
X000733Y004935D02*
X000733Y004565D01*
X000427Y004565D02*
X000365Y004627D01*
X007765Y003035D02*
X007765Y002665D01*
X007765Y002788D02*
X007950Y002788D01*
X008012Y002850D01*
X008012Y002974D01*
X007950Y003035D01*
X007765Y003035D01*
X007888Y002788D02*
X008012Y002665D01*
X008133Y002727D02*
X008133Y002850D01*
X008195Y002912D01*
X008318Y002912D01*
X008380Y002850D01*
X008380Y002788D01*
X008133Y002788D01*
X008133Y002727D02*
X008195Y002665D01*
X008318Y002665D01*
X008625Y002665D02*
X008502Y002912D01*
X008749Y002912D02*
X008625Y002665D01*
X009238Y002727D02*
X009485Y002974D01*
X009485Y002727D01*
X009423Y002665D01*
X009300Y002665D01*
X009238Y002727D01*
X009238Y002974D01*
X009300Y003035D01*
X009423Y003035D01*
X009485Y002974D01*
X009791Y002974D02*
X009852Y003035D01*
X009976Y003035D01*
X010038Y002974D01*
X010038Y002912D01*
X009791Y002665D01*
X010038Y002665D01*
X009668Y002665D02*
X009607Y002665D01*
X009607Y002727D01*
X009668Y002727D01*
X009668Y002665D01*
X010665Y002749D02*
X010665Y002502D01*
X010788Y002318D02*
X010850Y002380D01*
X010912Y002380D01*
X010912Y002133D01*
X010973Y002133D02*
X010850Y002133D01*
X010788Y002195D01*
X010788Y002318D01*
X011035Y002318D02*
X011035Y002195D01*
X010973Y002133D01*
X010912Y002012D02*
X010850Y002012D01*
X010788Y001950D01*
X010788Y001827D01*
X010850Y001765D01*
X010973Y001765D01*
X011035Y001827D01*
X011035Y001950D01*
X010912Y002012D02*
X010912Y001765D01*
X010973Y002502D02*
X011035Y002502D01*
X011035Y002749D01*
X010973Y002870D02*
X010850Y002870D01*
X010788Y002932D01*
X010788Y003055D01*
X010850Y003117D01*
X010912Y003117D01*
X010912Y002870D01*
X010973Y002870D02*
X011035Y002932D01*
X011035Y003055D01*
X010973Y003238D02*
X010850Y003238D01*
X010788Y003300D01*
X010788Y003423D01*
X010850Y003485D01*
X010912Y003485D01*
X010912Y003238D01*
X010973Y003238D02*
X011035Y003300D01*
X011035Y003423D01*
X011035Y003730D02*
X010665Y003730D01*
X010665Y003607D02*
X010665Y003853D01*
X010788Y003975D02*
X010788Y004037D01*
X011035Y004037D01*
X011035Y004098D02*
X011035Y003975D01*
X011035Y004220D02*
X010788Y004220D01*
X010788Y004406D01*
X010850Y004467D01*
X011035Y004467D01*
X010973Y004589D02*
X010788Y004589D01*
X010973Y004589D02*
X011035Y004650D01*
X011035Y004836D01*
X011097Y004836D02*
X011158Y004774D01*
X011158Y004712D01*
X011097Y004836D02*
X010788Y004836D01*
X010788Y004957D02*
X010726Y004957D01*
X010665Y005019D01*
X010665Y005142D01*
X010726Y005204D01*
X010788Y005204D01*
X010850Y005142D01*
X010850Y005019D01*
X010788Y004957D01*
X010850Y005019D02*
X010912Y004957D01*
X010973Y004957D01*
X011035Y005019D01*
X011035Y005142D01*
X010973Y005204D01*
X010912Y005204D01*
X010850Y005142D01*
X010850Y005325D02*
X010850Y005572D01*
X010788Y005694D02*
X010665Y005817D01*
X011035Y005817D01*
X011035Y005694D02*
X011035Y005941D01*
X011035Y005511D02*
X010665Y005511D01*
X010850Y005325D01*
X010665Y004037D02*
X010603Y004037D01*
X010665Y002749D02*
X010726Y002749D01*
X010973Y002502D01*
D11*
X001470Y001550D02*
X001470Y001270D01*
X001470Y001363D02*
X001610Y001363D01*
X001657Y001410D01*
X001657Y001504D01*
X001610Y001550D01*
X001470Y001550D01*
X001765Y001550D02*
X001765Y001270D01*
X001905Y001270D01*
X001951Y001317D01*
X001951Y001363D01*
X001905Y001410D01*
X001765Y001410D01*
X001905Y001410D02*
X001951Y001457D01*
X001951Y001504D01*
X001905Y001550D01*
X001765Y001550D01*
X002059Y001504D02*
X002106Y001550D01*
X002199Y001550D01*
X002246Y001504D01*
X002059Y001317D01*
X002106Y001270D01*
X002199Y001270D01*
X002246Y001317D01*
X002246Y001504D01*
X002059Y001504D02*
X002059Y001317D01*
X002470Y001363D02*
X002610Y001363D01*
X002657Y001410D01*
X002657Y001504D01*
X002610Y001550D01*
X002470Y001550D01*
X002470Y001270D01*
X002765Y001270D02*
X002905Y001270D01*
X002951Y001317D01*
X002951Y001363D01*
X002905Y001410D01*
X002765Y001410D01*
X002765Y001270D02*
X002765Y001550D01*
X002905Y001550D01*
X002951Y001504D01*
X002951Y001457D01*
X002905Y001410D01*
X003059Y001457D02*
X003153Y001550D01*
X003153Y001270D01*
X003246Y001270D02*
X003059Y001270D01*
X003470Y001270D02*
X003470Y001550D01*
X003610Y001550D01*
X003657Y001504D01*
X003657Y001410D01*
X003610Y001363D01*
X003470Y001363D01*
X003765Y001410D02*
X003905Y001410D01*
X003951Y001363D01*
X003951Y001317D01*
X003905Y001270D01*
X003765Y001270D01*
X003765Y001550D01*
X003905Y001550D01*
X003951Y001504D01*
X003951Y001457D01*
X003905Y001410D01*
X004059Y001504D02*
X004106Y001550D01*
X004199Y001550D01*
X004246Y001504D01*
X004246Y001457D01*
X004199Y001410D01*
X004246Y001363D01*
X004246Y001317D01*
X004199Y001270D01*
X004106Y001270D01*
X004059Y001317D01*
X004153Y001410D02*
X004199Y001410D01*
X004470Y001363D02*
X004610Y001363D01*
X004657Y001410D01*
X004657Y001504D01*
X004610Y001550D01*
X004470Y001550D01*
X004470Y001270D01*
X004765Y001270D02*
X004765Y001550D01*
X004905Y001550D01*
X004951Y001504D01*
X004951Y001457D01*
X004905Y001410D01*
X004765Y001410D01*
X004905Y001410D02*
X004951Y001363D01*
X004951Y001317D01*
X004905Y001270D01*
X004765Y001270D01*
X005059Y001270D02*
X005246Y001457D01*
X005246Y001504D01*
X005199Y001550D01*
X005106Y001550D01*
X005059Y001504D01*
X005059Y001270D02*
X005246Y001270D01*
X005470Y001270D02*
X005470Y001550D01*
X005610Y001550D01*
X005657Y001504D01*
X005657Y001410D01*
X005610Y001363D01*
X005470Y001363D01*
X005765Y001410D02*
X005951Y001410D01*
X005951Y001457D02*
X005951Y001270D01*
X006059Y001270D02*
X006059Y001317D01*
X006246Y001504D01*
X006246Y001550D01*
X006059Y001550D01*
X005951Y001457D02*
X005858Y001550D01*
X005765Y001457D01*
X005765Y001270D01*
X006470Y001270D02*
X006470Y001550D01*
X006610Y001550D01*
X006657Y001504D01*
X006657Y001410D01*
X006610Y001363D01*
X006470Y001363D01*
X006765Y001410D02*
X006951Y001410D01*
X006951Y001457D02*
X006951Y001270D01*
X007059Y001317D02*
X007106Y001270D01*
X007199Y001270D01*
X007246Y001317D01*
X007246Y001363D01*
X007199Y001410D01*
X007059Y001410D01*
X007059Y001317D01*
X007059Y001410D02*
X007153Y001504D01*
X007246Y001550D01*
X006951Y001457D02*
X006858Y001550D01*
X006765Y001457D01*
X006765Y001270D01*
X006780Y002020D02*
X006540Y002020D01*
X006420Y002140D01*
X006540Y002260D01*
X006780Y002260D01*
X006600Y002260D02*
X006600Y002020D01*
X006420Y002388D02*
X006420Y002629D01*
X006420Y002508D02*
X006780Y002508D01*
X006540Y002757D02*
X006540Y002877D01*
X006480Y002817D02*
X006720Y002817D01*
X006780Y002877D01*
X006780Y003002D02*
X006780Y003122D01*
X006780Y003062D02*
X006540Y003062D01*
X006540Y003002D01*
X006420Y003062D02*
X006360Y003062D01*
X006540Y003248D02*
X006540Y003428D01*
X006600Y003488D01*
X006780Y003488D01*
X006720Y003616D02*
X006780Y003676D01*
X006780Y003856D01*
X006840Y003856D02*
X006900Y003796D01*
X006900Y003736D01*
X006840Y003856D02*
X006540Y003856D01*
X006540Y003984D02*
X006480Y003984D01*
X006420Y004044D01*
X006420Y004164D01*
X006480Y004225D01*
X006540Y004225D01*
X006600Y004164D01*
X006600Y004044D01*
X006540Y003984D01*
X006600Y004044D02*
X006660Y003984D01*
X006720Y003984D01*
X006780Y004044D01*
X006780Y004164D01*
X006720Y004225D01*
X006660Y004225D01*
X006600Y004164D01*
X006600Y004353D02*
X006600Y004593D01*
X006540Y004721D02*
X006420Y004841D01*
X006780Y004841D01*
X006780Y004721D02*
X006780Y004961D01*
X006781Y005150D02*
X006781Y005337D01*
X006874Y005430D01*
X006968Y005337D01*
X006968Y005150D01*
X007075Y005197D02*
X007122Y005150D01*
X007215Y005150D01*
X007262Y005197D01*
X007262Y005290D01*
X007215Y005337D01*
X007169Y005337D01*
X007075Y005290D01*
X007075Y005430D01*
X007262Y005430D01*
X006968Y005290D02*
X006781Y005290D01*
X006673Y005290D02*
X006626Y005243D01*
X006486Y005243D01*
X006486Y005150D02*
X006486Y005430D01*
X006626Y005430D01*
X006673Y005384D01*
X006673Y005290D01*
X006262Y005290D02*
X006075Y005290D01*
X006215Y005430D01*
X006215Y005150D01*
X005968Y005150D02*
X005968Y005337D01*
X005874Y005430D01*
X005781Y005337D01*
X005781Y005150D01*
X005673Y005290D02*
X005626Y005243D01*
X005486Y005243D01*
X005486Y005150D02*
X005486Y005430D01*
X005626Y005430D01*
X005673Y005384D01*
X005673Y005290D01*
X005781Y005290D02*
X005968Y005290D01*
X005262Y005243D02*
X005262Y005197D01*
X005215Y005150D01*
X005122Y005150D01*
X005075Y005197D01*
X004968Y005150D02*
X004968Y005337D01*
X004874Y005430D01*
X004781Y005337D01*
X004781Y005150D01*
X004781Y005290D02*
X004968Y005290D01*
X005075Y005384D02*
X005122Y005430D01*
X005215Y005430D01*
X005262Y005384D01*
X005262Y005337D01*
X005215Y005290D01*
X005262Y005243D01*
X005215Y005290D02*
X005169Y005290D01*
X004673Y005290D02*
X004626Y005243D01*
X004486Y005243D01*
X004486Y005150D02*
X004486Y005430D01*
X004626Y005430D01*
X004673Y005384D01*
X004673Y005290D01*
X004262Y005337D02*
X004262Y005384D01*
X004215Y005430D01*
X004122Y005430D01*
X004075Y005384D01*
X003968Y005337D02*
X003968Y005150D01*
X004075Y005150D02*
X004262Y005337D01*
X003968Y005337D02*
X003874Y005430D01*
X003781Y005337D01*
X003781Y005150D01*
X003673Y005290D02*
X003626Y005243D01*
X003486Y005243D01*
X003486Y005150D02*
X003486Y005430D01*
X003626Y005430D01*
X003673Y005384D01*
X003673Y005290D01*
X003781Y005290D02*
X003968Y005290D01*
X004075Y005150D02*
X004262Y005150D01*
X003262Y005150D02*
X003075Y005150D01*
X003169Y005150D02*
X003169Y005430D01*
X003075Y005337D01*
X002968Y005337D02*
X002968Y005150D01*
X002968Y005290D02*
X002781Y005290D01*
X002781Y005337D02*
X002874Y005430D01*
X002968Y005337D01*
X002781Y005337D02*
X002781Y005150D01*
X002673Y005290D02*
X002626Y005243D01*
X002486Y005243D01*
X002486Y005150D02*
X002486Y005430D01*
X002626Y005430D01*
X002673Y005384D01*
X002673Y005290D01*
X002212Y005197D02*
X002165Y005150D01*
X002072Y005150D01*
X002025Y005197D01*
X002212Y005384D01*
X002212Y005197D01*
X002212Y005384D02*
X002165Y005430D01*
X002072Y005430D01*
X002025Y005384D01*
X002025Y005197D01*
X001918Y005150D02*
X001918Y005337D01*
X001824Y005430D01*
X001731Y005337D01*
X001731Y005150D01*
X001623Y005290D02*
X001576Y005243D01*
X001436Y005243D01*
X001436Y005150D02*
X001436Y005430D01*
X001576Y005430D01*
X001623Y005384D01*
X001623Y005290D01*
X001731Y005290D02*
X001918Y005290D01*
X006420Y004533D02*
X006600Y004353D01*
X006780Y004533D02*
X006420Y004533D01*
X006540Y003616D02*
X006720Y003616D01*
X006780Y003248D02*
X006540Y003248D01*
X008470Y002277D02*
X008470Y001970D01*
X008470Y002123D02*
X008623Y002277D01*
X008700Y002277D01*
X008854Y002200D02*
X008930Y002277D01*
X009084Y002277D01*
X009161Y002200D01*
X009161Y002123D01*
X008854Y002123D01*
X008854Y002047D02*
X008854Y002200D01*
X008854Y002047D02*
X008930Y001970D01*
X009084Y001970D01*
X009314Y001970D02*
X009544Y001970D01*
X009621Y002047D01*
X009544Y002123D01*
X009391Y002123D01*
X009314Y002200D01*
X009391Y002277D01*
X009621Y002277D01*
X009774Y002200D02*
X009851Y002277D01*
X010005Y002277D01*
X010081Y002200D01*
X010081Y002123D01*
X009774Y002123D01*
X009774Y002047D02*
X009774Y002200D01*
X009774Y002047D02*
X009851Y001970D01*
X010005Y001970D01*
X010312Y002047D02*
X010388Y001970D01*
X010312Y002047D02*
X010312Y002354D01*
X010235Y002277D02*
X010388Y002277D01*
D12*
X010531Y001739D02*
X008169Y001739D01*
X008169Y001719D02*
X008169Y001483D01*
X008759Y001345D02*
X008759Y000755D01*
X009941Y000755D01*
X009941Y001345D01*
X008759Y001345D01*
X008169Y000617D02*
X008169Y000381D01*
X008169Y000361D02*
X010531Y000361D01*
X010531Y000381D02*
X010531Y000617D01*
X010531Y001483D02*
X010531Y001719D01*
X010350Y003350D02*
X008350Y003350D01*
X008350Y006350D01*
X008050Y006350D01*
X008050Y005350D01*
X008350Y005350D01*
X008350Y006350D01*
X010350Y006350D01*
X010350Y003350D01*
X008350Y005388D02*
X008050Y005388D01*
X008050Y005437D02*
X008350Y005437D01*
X008350Y005485D02*
X008050Y005485D01*
X008050Y005534D02*
X008350Y005534D01*
X008350Y005582D02*
X008050Y005582D01*
X008050Y005631D02*
X008350Y005631D01*
X008350Y005679D02*
X008050Y005679D01*
X008050Y005728D02*
X008350Y005728D01*
X008350Y005776D02*
X008050Y005776D01*
X008050Y005825D02*
X008350Y005825D01*
X008350Y005873D02*
X008050Y005873D01*
X008050Y005922D02*
X008350Y005922D01*
X008350Y005970D02*
X008050Y005970D01*
X008050Y006019D02*
X008350Y006019D01*
X008350Y006067D02*
X008050Y006067D01*
X008050Y006116D02*
X008350Y006116D01*
X008350Y006164D02*
X008050Y006164D01*
X008050Y006213D02*
X008350Y006213D01*
X008350Y006261D02*
X008050Y006261D01*
X008050Y006310D02*
X008350Y006310D01*
X005934Y002838D02*
X002466Y002838D01*
X002584Y002917D02*
X002820Y002917D01*
X002702Y003114D01*
X002584Y002917D01*
D13*
X002387Y002582D02*
X002388Y002565D01*
X002393Y002548D01*
X002400Y002533D01*
X002410Y002519D01*
X002422Y002507D01*
X002436Y002497D01*
X002451Y002490D01*
X002468Y002485D01*
X002485Y002484D01*
X002387Y002582D02*
X002387Y004118D01*
X002388Y004135D01*
X002393Y004152D01*
X002400Y004167D01*
X002410Y004181D01*
X002422Y004193D01*
X002436Y004203D01*
X002451Y004210D01*
X002468Y004215D01*
X002485Y004216D01*
X001350Y004100D02*
X001350Y003600D01*
X001100Y003350D01*
X001350Y003100D01*
X001350Y002600D01*
X001100Y002350D01*
X000600Y002350D01*
X000350Y002600D01*
X000350Y003100D01*
X000600Y003350D01*
X000350Y003600D01*
X000350Y004100D01*
X000600Y004350D01*
X001100Y004350D01*
X001350Y004100D01*
X001100Y003350D02*
X000600Y003350D01*
X005915Y002484D02*
X005932Y002485D01*
X005949Y002490D01*
X005964Y002497D01*
X005978Y002507D01*
X005990Y002519D01*
X006000Y002533D01*
X006007Y002548D01*
X006012Y002565D01*
X006013Y002582D01*
X006013Y004118D01*
X006012Y004135D01*
X006007Y004152D01*
X006000Y004167D01*
X005990Y004181D01*
X005978Y004193D01*
X005964Y004203D01*
X005949Y004210D01*
X005932Y004215D01*
X005915Y004216D01*
M02*
